<svg width="69.469" height="49.25" viewBox="0 0 69.469 49.25" xmlns="http://www.w3.org/2000/svg">
    <g id="svgGroup" stroke-linecap="round" fill-rule="evenodd" font-size="9pt" stroke="#000" stroke-width="0.25mm"
        fill="#000" style="stroke:#000;stroke-width:0.25mm;fill:#000">
        <path
            d="M 0 42.219 L 1.438 41.719 A 7.157 7.157 0 0 0 2.177 43.734 A 6.18 6.18 0 0 0 3.234 45.125 A 8.02 8.02 0 0 0 5.501 46.683 A 10.106 10.106 0 0 0 6.672 47.141 A 13.614 13.614 0 0 0 9.284 47.697 A 17.745 17.745 0 0 0 11.344 47.813 Q 16.844 47.813 20.406 44.891 A 11.703 11.703 0 0 0 23.658 40.536 Q 24.529 38.59 24.938 36.125 L 26.5 26.688 L 26.313 26.688 A 17.319 17.319 0 0 1 24.395 29.803 A 14.608 14.608 0 0 1 22.797 31.547 A 14.904 14.904 0 0 1 19.427 33.921 A 13.575 13.575 0 0 1 18.203 34.469 Q 15.719 35.438 13.156 35.438 A 12.581 12.581 0 0 1 10.217 35.11 A 9.607 9.607 0 0 1 7.172 33.813 A 10.121 10.121 0 0 1 3.721 29.952 A 12.445 12.445 0 0 1 3.375 29.234 A 14.797 14.797 0 0 1 2.314 25.601 A 20.155 20.155 0 0 1 2.063 22.344 Q 2.063 18.5 3.203 14.578 Q 4.344 10.656 6.5 7.344 Q 8.656 4.031 11.766 2.016 A 12.593 12.593 0 0 1 18.445 0.005 A 15.161 15.161 0 0 1 18.813 0 A 11.941 11.941 0 0 1 21.144 0.219 A 9.868 9.868 0 0 1 22.688 0.656 Q 24.438 1.313 25.766 2.547 A 10.082 10.082 0 0 1 27.816 5.248 A 11.506 11.506 0 0 1 27.953 5.516 A 12.598 12.598 0 0 1 28.859 7.987 A 15.565 15.565 0 0 1 29.156 9.438 L 29.344 9.438 L 30.844 0.5 L 32.281 0.5 L 26.344 36.25 A 20.852 20.852 0 0 1 25.423 39.848 A 15.19 15.19 0 0 1 23.594 43.438 Q 21.563 46.344 18.438 47.797 A 15.42 15.42 0 0 1 14.062 49.062 A 19.917 19.917 0 0 1 11.281 49.25 A 19.063 19.063 0 0 1 8.319 49.03 A 14.938 14.938 0 0 1 5.969 48.469 Q 3.594 47.688 2.047 46.109 A 7.7 7.7 0 0 1 0.075 42.54 A 9.296 9.296 0 0 1 0 42.219 Z M 37.188 42.219 L 38.625 41.719 A 7.157 7.157 0 0 0 39.365 43.734 A 6.18 6.18 0 0 0 40.422 45.125 A 8.02 8.02 0 0 0 42.689 46.683 A 10.106 10.106 0 0 0 43.859 47.141 A 13.614 13.614 0 0 0 46.472 47.697 A 17.745 17.745 0 0 0 48.531 47.813 Q 54.031 47.813 57.594 44.891 A 11.703 11.703 0 0 0 60.846 40.536 Q 61.716 38.59 62.125 36.125 L 63.688 26.688 L 63.5 26.688 A 17.319 17.319 0 0 1 61.582 29.803 A 14.608 14.608 0 0 1 59.984 31.547 A 14.904 14.904 0 0 1 56.614 33.921 A 13.575 13.575 0 0 1 55.391 34.469 Q 52.906 35.438 50.344 35.438 A 12.581 12.581 0 0 1 47.404 35.11 A 9.607 9.607 0 0 1 44.359 33.813 A 10.121 10.121 0 0 1 40.909 29.952 A 12.445 12.445 0 0 1 40.563 29.234 A 14.797 14.797 0 0 1 39.501 25.601 A 20.155 20.155 0 0 1 39.25 22.344 Q 39.25 18.5 40.391 14.578 Q 41.531 10.656 43.688 7.344 Q 45.844 4.031 48.953 2.016 A 12.593 12.593 0 0 1 55.633 0.005 A 15.161 15.161 0 0 1 56 0 A 11.941 11.941 0 0 1 58.332 0.219 A 9.868 9.868 0 0 1 59.875 0.656 Q 61.625 1.313 62.953 2.547 A 10.082 10.082 0 0 1 65.003 5.248 A 11.506 11.506 0 0 1 65.141 5.516 A 12.598 12.598 0 0 1 66.046 7.987 A 15.565 15.565 0 0 1 66.344 9.438 L 66.531 9.438 L 68.031 0.5 L 69.469 0.5 L 63.531 36.25 A 20.852 20.852 0 0 1 62.61 39.848 A 15.19 15.19 0 0 1 60.781 43.438 Q 58.75 46.344 55.625 47.797 A 15.42 15.42 0 0 1 51.249 49.062 A 19.917 19.917 0 0 1 48.469 49.25 A 19.063 19.063 0 0 1 45.506 49.03 A 14.938 14.938 0 0 1 43.156 48.469 Q 40.781 47.688 39.234 46.109 A 7.7 7.7 0 0 1 37.263 42.54 A 9.296 9.296 0 0 1 37.188 42.219 Z M 13.188 34 A 12.635 12.635 0 0 0 17.034 33.432 A 11.083 11.083 0 0 0 19.656 32.203 Q 22.469 30.406 24.406 27.438 Q 26.344 24.469 27.328 20.859 Q 28.313 17.25 28.313 13.625 A 19.294 19.294 0 0 0 27.968 9.871 Q 27.518 7.607 26.484 5.812 A 11.36 11.36 0 0 0 25.859 4.844 A 7.925 7.925 0 0 0 20.043 1.505 A 11.407 11.407 0 0 0 18.781 1.438 A 11.238 11.238 0 0 0 12.391 3.328 A 16.784 16.784 0 0 0 8.075 7.546 A 19.555 19.555 0 0 0 7.563 8.297 Q 5.563 11.375 4.516 15.063 A 27.032 27.032 0 0 0 3.509 20.916 A 24.531 24.531 0 0 0 3.469 22.313 Q 3.469 26.574 5.088 29.454 A 10.085 10.085 0 0 0 6.016 30.828 A 8.293 8.293 0 0 0 11.659 33.906 A 12.061 12.061 0 0 0 13.188 34 Z M 50.375 34 A 12.635 12.635 0 0 0 54.221 33.432 A 11.083 11.083 0 0 0 56.844 32.203 Q 59.656 30.406 61.594 27.438 Q 63.531 24.469 64.516 20.859 Q 65.5 17.25 65.5 13.625 A 19.294 19.294 0 0 0 65.155 9.871 Q 64.706 7.607 63.672 5.812 A 11.36 11.36 0 0 0 63.047 4.844 A 7.925 7.925 0 0 0 57.231 1.505 A 11.407 11.407 0 0 0 55.969 1.438 A 11.238 11.238 0 0 0 49.578 3.328 A 16.784 16.784 0 0 0 45.263 7.546 A 19.555 19.555 0 0 0 44.75 8.297 Q 42.75 11.375 41.703 15.063 A 27.032 27.032 0 0 0 40.696 20.916 A 24.531 24.531 0 0 0 40.656 22.313 Q 40.656 26.574 42.276 29.454 A 10.085 10.085 0 0 0 43.203 30.828 A 8.293 8.293 0 0 0 48.847 33.906 A 12.061 12.061 0 0 0 50.375 34 Z"
            vector-effect="non-scaling-stroke" />
    </g>
</svg>